<?xml version="1.0" encoding="UTF-8"?>
<svg width="3210px" height="1024px" viewBox="0 0 3210 1024" version="1.1" xmlns="http://www.w3.org/2000/svg" xmlns:xlink="http://www.w3.org/1999/xlink">
    <!-- Generator: Sketch 48.2 (47327) - http://www.bohemiancoding.com/sketch -->
    <title>ethlogo - commerce@2x</title>
    <desc>Created with Sketch.</desc>
    <defs></defs>
    <g id="Page-1" stroke="none" stroke-width="1" fill="none" fill-rule="evenodd">
        <g id="ethlogo---commerce">
            <path d="M834.14,684 L834.14,444.222 L972.54,444.222 L972.54,464.636 L857.668,464.636 L857.668,548.022 L960.084,548.022 L960.084,568.09 L857.668,568.09 L857.668,663.586 L981.536,663.586 L981.536,684 L834.14,684 Z M1179.20883,444.222 L1179.20883,464.636 L1102.39683,464.636 L1102.39683,684 L1078.86883,684 L1078.86883,464.636 L1002.05683,464.636 L1002.05683,444.222 L1179.20883,444.222 Z M1370.99965,444.222 L1394.52765,444.222 L1394.52765,684 L1370.99965,684 L1370.99965,568.782 L1240.90365,568.782 L1240.90365,684 L1217.37565,684 L1217.37565,444.222 L1240.90365,444.222 L1240.90365,548.368 L1370.99965,548.368 L1370.99965,444.222 Z M1530.26648,687.806 C1516.42641,687.806 1504.2012,685.614689 1493.59048,681.232 C1482.97976,676.849311 1474.15684,670.563708 1467.12148,662.375 C1460.08611,654.186292 1454.72316,644.383057 1451.03248,632.965 C1447.34179,621.546943 1445.49648,608.918069 1445.49648,595.078 C1445.49648,581.007263 1447.39946,568.205391 1451.20548,556.672 C1455.0115,545.138609 1460.48977,535.220042 1467.64048,526.916 C1474.79118,518.611958 1483.44109,512.211022 1493.59048,507.713 C1503.73986,503.214978 1515.15775,500.966 1527.84448,500.966 C1537.53252,500.966 1546.5861,501.773325 1555.00548,503.388 C1563.42485,505.002675 1569.94112,507.078654 1574.55448,509.616 L1568.67248,528.992 C1564.05912,526.685322 1558.86917,524.840007 1553.10248,523.456 C1547.33578,522.071993 1539.60852,521.38 1529.92048,521.38 C1510.08304,521.38 1495.03219,527.780936 1484.76748,540.583 C1474.50276,553.385064 1469.37048,571.549882 1469.37048,595.078 C1469.37048,605.68872 1470.5238,615.434289 1472.83048,624.315 C1475.13715,633.195711 1478.88545,640.807635 1484.07548,647.151 C1489.2655,653.494365 1495.95477,658.453649 1504.14348,662.029 C1512.33218,665.604351 1522.30842,667.392 1534.07248,667.392 C1543.76052,667.392 1551.89144,666.296344 1558.46548,664.105 C1565.03951,661.913656 1569.82579,660.010675 1572.82448,658.396 L1577.66848,677.772 C1573.51646,680.078678 1567.00019,682.327656 1558.11948,684.519 C1549.23876,686.710344 1539.95452,687.806 1530.26648,687.806 Z M1768.7673,594.732 C1768.7673,608.802737 1766.74899,621.604609 1762.7123,633.138 C1758.67561,644.671391 1753.02434,654.474626 1745.7583,662.548 C1738.49226,670.621374 1729.90002,676.906978 1719.9813,681.405 C1710.06259,685.903022 1699.10603,688.152 1687.1113,688.152 C1675.11657,688.152 1664.16002,685.903022 1654.2413,681.405 C1644.32259,676.906978 1635.73034,670.621374 1628.4643,662.548 C1621.19826,654.474626 1615.54699,644.671391 1611.5103,633.138 C1607.47361,621.604609 1605.4553,608.802737 1605.4553,594.732 C1605.4553,580.661263 1607.47361,567.859391 1611.5103,556.326 C1615.54699,544.792609 1621.19826,534.931708 1628.4643,526.743 C1635.73034,518.554292 1644.32259,512.211022 1654.2413,507.713 C1664.16002,503.214978 1675.11657,500.966 1687.1113,500.966 C1699.10603,500.966 1710.06259,503.214978 1719.9813,507.713 C1729.90002,512.211022 1738.49226,518.554292 1745.7583,526.743 C1753.02434,534.931708 1758.67561,544.792609 1762.7123,556.326 C1766.74899,567.859391 1768.7673,580.661263 1768.7673,594.732 Z M1744.8933,594.732 C1744.8933,572.357221 1739.70335,554.5384 1729.3233,541.275 C1718.94325,528.0116 1704.87272,521.38 1687.1113,521.38 C1669.34988,521.38 1655.27935,528.0116 1644.8993,541.275 C1634.51925,554.5384 1629.3293,572.357221 1629.3293,594.732 C1629.3293,617.106779 1634.51925,634.867934 1644.8993,648.016 C1655.27935,661.164066 1669.34988,667.738 1687.1113,667.738 C1704.87272,667.738 1718.94325,661.164066 1729.3233,648.016 C1739.70335,634.867934 1744.8933,617.106779 1744.8933,594.732 Z M1818.35213,511.346 C1825.04149,509.500657 1833.74907,507.424678 1844.47513,505.118 C1855.20118,502.811322 1869.09871,501.658 1886.16813,501.658 C1908.77357,501.658 1925.15074,508.231934 1935.30013,521.38 C1936.45347,520.457329 1938.70244,518.900344 1942.04713,516.709 C1945.39181,514.517656 1949.60143,512.268678 1954.67613,509.962 C1959.75082,507.655322 1965.69043,505.694675 1972.49513,504.08 C1979.29983,502.465325 1986.85409,501.658 1995.15813,501.658 C2008.76753,501.658 2019.78175,503.676313 2028.20113,507.713 C2036.6205,511.749687 2043.13677,517.400964 2047.75013,524.667 C2052.36348,531.933036 2055.47745,540.640616 2057.09213,550.79 C2058.7068,560.939384 2059.51413,572.011273 2059.51413,584.006 L2059.51413,684 L2037.02413,684 L2037.02413,591.272 C2037.02413,579.507941 2036.50513,569.301043 2035.46713,560.651 C2034.42912,552.000957 2032.35314,544.850362 2029.23913,539.199 C2026.12511,533.547638 2021.68482,529.280348 2015.91813,526.397 C2010.15143,523.513652 2002.65484,522.072 1993.42813,522.072 C1986.50809,522.072 1980.22249,522.706327 1974.57113,523.975 C1968.91977,525.243673 1964.01815,526.800657 1959.86613,528.646 C1955.71411,530.491343 1952.31181,532.336657 1949.65913,534.182 C1947.00645,536.027343 1945.10347,537.411329 1943.95013,538.334 C1946.02614,544.331363 1947.58312,551.078296 1948.62113,558.575 C1949.65913,566.071704 1950.17813,573.971958 1950.17813,582.276 L1950.17813,684 L1927.68813,684 L1927.68813,591.272 C1927.68813,579.507941 1927.16913,569.301043 1926.13113,560.651 C1925.09312,552.000957 1922.95948,544.850362 1919.73013,539.199 C1916.50078,533.547638 1911.94516,529.280348 1906.06313,526.397 C1900.1811,523.513652 1892.39618,522.072 1882.70813,522.072 C1871.86674,522.072 1862.69783,522.648661 1855.20113,523.802 C1847.70442,524.955339 1842.91814,525.993329 1840.84213,526.916 L1840.84213,684 L1818.35213,684 L1818.35213,511.346 Z M2117.74895,511.346 C2124.43832,509.500657 2133.1459,507.424678 2143.87195,505.118 C2154.59801,502.811322 2168.49553,501.658 2185.56495,501.658 C2208.1704,501.658 2224.54757,508.231934 2234.69695,521.38 C2235.85029,520.457329 2238.09927,518.900344 2241.44395,516.709 C2244.78864,514.517656 2248.99826,512.268678 2254.07295,509.962 C2259.14764,507.655322 2265.08725,505.694675 2271.89195,504.08 C2278.69665,502.465325 2286.25091,501.658 2294.55495,501.658 C2308.16435,501.658 2319.17858,503.676313 2327.59795,507.713 C2336.01733,511.749687 2342.5336,517.400964 2347.14695,524.667 C2351.76031,531.933036 2354.87428,540.640616 2356.48895,550.79 C2358.10363,560.939384 2358.91095,572.011273 2358.91095,584.006 L2358.91095,684 L2336.42095,684 L2336.42095,591.272 C2336.42095,579.507941 2335.90196,569.301043 2334.86395,560.651 C2333.82595,552.000957 2331.74997,544.850362 2328.63595,539.199 C2325.52194,533.547638 2321.08165,529.280348 2315.31495,526.397 C2309.54826,523.513652 2302.05166,522.072 2292.82495,522.072 C2285.90492,522.072 2279.61931,522.706327 2273.96795,523.975 C2268.31659,525.243673 2263.41497,526.800657 2259.26295,528.646 C2255.11093,530.491343 2251.70863,532.336657 2249.05595,534.182 C2246.40327,536.027343 2244.50029,537.411329 2243.34695,538.334 C2245.42296,544.331363 2246.97995,551.078296 2248.01795,558.575 C2249.05596,566.071704 2249.57495,573.971958 2249.57495,582.276 L2249.57495,684 L2227.08495,684 L2227.08495,591.272 C2227.08495,579.507941 2226.56596,569.301043 2225.52795,560.651 C2224.48995,552.000957 2222.3563,544.850362 2219.12695,539.199 C2215.8976,533.547638 2211.34198,529.280348 2205.45995,526.397 C2199.57792,523.513652 2191.793,522.072 2182.10495,522.072 C2171.26356,522.072 2162.09466,522.648661 2154.59795,523.802 C2147.10125,524.955339 2142.31496,525.993329 2140.23895,526.916 L2140.23895,684 L2117.74895,684 L2117.74895,511.346 Z M2406.41978,594.386 C2406.41978,578.700588 2408.66875,565.033725 2413.16678,553.385 C2417.6648,541.736275 2423.54674,531.990706 2430.81278,524.148 C2438.07881,516.305294 2446.38273,510.481019 2455.72478,506.675 C2465.06682,502.868981 2474.69706,500.966 2484.61578,500.966 C2506.52922,500.966 2524.00205,508.116595 2537.03478,522.418 C2550.06751,536.719405 2556.58378,558.747851 2556.58378,588.504 C2556.58378,590.349343 2556.52611,592.194657 2556.41078,594.04 C2556.29544,595.885343 2556.12245,597.615325 2555.89178,599.23 L2430.29378,599.23 C2430.98578,621.143443 2436.40639,637.981941 2446.55578,649.746 C2456.70516,661.510059 2472.85167,667.392 2494.99578,667.392 C2507.22117,667.392 2516.90907,666.238678 2524.05978,663.932 C2531.21048,661.625322 2536.40043,659.664675 2539.62978,658.05 L2543.78178,677.426 C2540.55243,679.271343 2534.49749,681.462654 2525.61678,684 C2516.73607,686.537346 2506.2985,687.806 2494.30378,687.806 C2478.61837,687.806 2465.23983,685.499356 2454.16778,680.886 C2443.09572,676.272644 2433.98448,669.814042 2426.83378,661.51 C2419.68307,653.205958 2414.49313,643.345057 2411.26378,631.927 C2408.03443,620.508943 2406.41978,607.995401 2406.41978,594.386 Z M2533.40178,580.2 C2532.94044,561.515907 2528.55782,546.984052 2520.25378,536.604 C2511.94974,526.223948 2500.18585,521.034 2484.96178,521.034 C2476.8884,521.034 2469.68014,522.648651 2463.33678,525.878 C2456.99341,529.107349 2451.45747,533.432306 2446.72878,538.853 C2442.00009,544.273694 2438.30946,550.559298 2435.65678,557.71 C2433.0041,564.860702 2431.44711,572.357294 2430.98578,580.2 L2533.40178,580.2 Z M2668.4486,501.658 C2675.82997,501.658 2682.80757,502.234661 2689.3816,503.388 C2695.95564,504.541339 2700.51126,505.694661 2703.0486,506.848 L2698.5506,526.224 C2696.70526,525.301329 2692.95696,524.321005 2687.3056,523.283 C2681.65424,522.244995 2674.21532,521.726 2664.9886,521.726 C2655.30055,521.726 2647.51563,522.417993 2641.6336,523.802 C2635.75157,525.186007 2631.88795,526.339329 2630.0426,527.262 L2630.0426,684 L2607.5526,684 L2607.5526,513.422 C2613.3193,510.884654 2621.27722,508.28968 2631.4266,505.637 C2641.57599,502.98432 2653.91653,501.658 2668.4486,501.658 Z M2811.79943,687.806 C2797.95936,687.806 2785.73415,685.614689 2775.12343,681.232 C2764.51271,676.849311 2755.6898,670.563708 2748.65443,662.375 C2741.61906,654.186292 2736.25611,644.383057 2732.56543,632.965 C2728.87474,621.546943 2727.02943,608.918069 2727.02943,595.078 C2727.02943,581.007263 2728.93241,568.205391 2732.73843,556.672 C2736.54445,545.138609 2742.02273,535.220042 2749.17343,526.916 C2756.32413,518.611958 2764.97404,512.211022 2775.12343,507.713 C2785.27281,503.214978 2796.6907,500.966 2809.37743,500.966 C2819.06548,500.966 2828.11905,501.773325 2836.53843,503.388 C2844.9578,505.002675 2851.47407,507.078654 2856.08743,509.616 L2850.20543,528.992 C2845.59207,526.685322 2840.40212,524.840007 2834.63543,523.456 C2828.86873,522.071993 2821.14148,521.38 2811.45343,521.38 C2791.616,521.38 2776.56515,527.780936 2766.30043,540.583 C2756.03571,553.385064 2750.90343,571.549882 2750.90343,595.078 C2750.90343,605.68872 2752.05675,615.434289 2754.36343,624.315 C2756.67011,633.195711 2760.4184,640.807635 2765.60843,647.151 C2770.79845,653.494365 2777.48772,658.453649 2785.67643,662.029 C2793.86514,665.604351 2803.84137,667.392 2815.60543,667.392 C2825.29348,667.392 2833.4244,666.296344 2839.99843,664.105 C2846.57246,661.913656 2851.35875,660.010675 2854.35743,658.396 L2859.20143,677.772 C2855.04941,680.078678 2848.53314,682.327656 2839.65243,684.519 C2830.77172,686.710344 2821.48748,687.806 2811.79943,687.806 Z M2886.98825,594.386 C2886.98825,578.700588 2889.23723,565.033725 2893.73525,553.385 C2898.23328,541.736275 2904.11522,531.990706 2911.38125,524.148 C2918.64729,516.305294 2926.95121,510.481019 2936.29325,506.675 C2945.6353,502.868981 2955.26554,500.966 2965.18425,500.966 C2987.0977,500.966 3004.57052,508.116595 3017.60325,522.418 C3030.63599,536.719405 3037.15225,558.747851 3037.15225,588.504 C3037.15225,590.349343 3037.09459,592.194657 3036.97925,594.04 C3036.86392,595.885343 3036.69092,597.615325 3036.46025,599.23 L2910.86225,599.23 C2911.55426,621.143443 2916.97487,637.981941 2927.12425,649.746 C2937.27364,661.510059 2953.42014,667.392 2975.56425,667.392 C2987.78965,667.392 2997.47755,666.238678 3004.62825,663.932 C3011.77896,661.625322 3016.9689,659.664675 3020.19825,658.05 L3024.35025,677.426 C3021.1209,679.271343 3015.06596,681.462654 3006.18525,684 C2997.30454,686.537346 2986.86698,687.806 2974.87225,687.806 C2959.18684,687.806 2945.80831,685.499356 2934.73625,680.886 C2923.6642,676.272644 2914.55296,669.814042 2907.40225,661.51 C2900.25155,653.205958 2895.0616,643.345057 2891.83225,631.927 C2888.6029,620.508943 2886.98825,607.995401 2886.98825,594.386 Z M3013.97025,580.2 C3013.50892,561.515907 3009.12629,546.984052 3000.82225,536.604 C2992.51821,526.223948 2980.75433,521.034 2965.53025,521.034 C2957.45688,521.034 2950.24862,522.648651 2943.90525,525.878 C2937.56189,529.107349 2932.02594,533.432306 2927.29725,538.853 C2922.56856,544.273694 2918.87793,550.559298 2916.22525,557.71 C2913.57257,564.860702 2912.01559,572.357294 2911.55425,580.2 L3013.97025,580.2 Z" id="ETHcommerce" fill="#FFFFFF"></path>
            <g id="white" transform="translate(175.000000, 138.000000)">
                <g id="Group" fill="#FFFFFF">
                    <g id="Group-Copy" transform="translate(276.000000, 252.500000) rotate(-345.000000) translate(-276.000000, -252.500000) translate(144.000000, 39.000000)">
                        <polygon id="Triangle" points="132.451282 0 263.053216 217.060472 132.451282 294.432364 0.270692036 217.060472"></polygon>
                        <polygon id="Triangle-Copy" transform="translate(132.245071, 334.129756) scale(1, -1) translate(-132.245071, -334.129756) " points="132.631872 241.542638 263.672964 426.716874 132.245071 348.846482 0.817177647 426.716874"></polygon>
                    </g>
                </g>
                <g id="Group-2" transform="translate(22.000000, 280.000000)">
                    <polyline id="Rectangle-3-Copy" stroke="#FFFFFF" stroke-width="16" stroke-linecap="round" stroke-linejoin="round" points="423.02488 33 364 274 80 274 0 33 89.5318783 33"></polyline>
                    <path d="M484.260213,0.102687928 L430.769723,0.102687928 L365.137592,271.229658 C387.656291,282.445131 398.91564,298.514097 398.91564,319.436554 C398.91564,340.359012 387.656291,352.121888 365.137592,354.725181 L28.0306406,354.727116" id="Path-2" stroke="#FFFFFF" stroke-width="16" stroke-linecap="round"></path>
                    <circle id="Oval" fill="#FFFFFF" cx="102.5" cy="427.5" r="40.5"></circle>
                    <circle id="Oval-Copy" fill="#FFFFFF" cx="342.5" cy="427.5" r="40.5"></circle>
                </g>
            </g>
        </g>
    </g>
</svg>